<svg xmlns="http://www.w3.org/2000/svg" width="32" height="31.933" viewBox="0 0 32 31.933"><defs><style>.a{fill:none;}.b{fill:#6f87ee;}</style></defs><path class="a" d="M0,0H31.9V31.933H0ZM0,0H31.9V31.933H0Z"/><path class="b" d="M17.43,16.365H27.609v1.871H17.43Zm0-3.061H27.609v1.871H17.43Zm0,6.18H27.609v1.871H17.43ZM29.006,6.5H2.927A2.719,2.719,0,0,0,0,8.938v16.1a2.762,2.762,0,0,0,2.927,2.495H29.073A2.762,2.762,0,0,0,32,25.039V8.938A2.83,2.83,0,0,0,29.006,6.5Zm0,18.539H15.967V8.938H29.006Z"/></svg>